<svg xmlns="http://www.w3.org/2000/svg" xmlns:xlink="http://www.w3.org/1999/xlink" width="89" height="91" viewBox="0 0 89 91">
  <defs>
    <filter id="Rectangle_146" x="0" y="0" width="89" height="91" filterUnits="userSpaceOnUse">
      <feOffset dy="3" input="SourceAlpha"/>
      <feGaussianBlur stdDeviation="3" result="blur"/>
      <feFlood flood-opacity="0.071"/>
      <feComposite operator="in" in2="blur"/>
      <feComposite in="SourceGraphic"/>
    </filter>
  </defs>
  <g id="Group_133" data-name="Group 133" transform="translate(87 561)">
    <g transform="matrix(1, 0, 0, 1, -87, -561)" filter="url(#Rectangle_146)">
      <rect id="Rectangle_146-2" data-name="Rectangle 146" width="71" height="73" rx="20" transform="translate(9 6)" fill="#fff"/>
    </g>
    <g id="diagnosis" transform="translate(-59.118 -541.5)">
      <path id="Path_379" data-name="Path 379" d="M105.928,33.929a.687.687,0,0,0-.687.687v9.091a1.669,1.669,0,0,1-1.667,1.667H76.282a1.669,1.669,0,0,1-1.667-1.667V3.041a1.669,1.669,0,0,1,1.667-1.667h5a.687.687,0,0,0,0-1.374h-5a3.044,3.044,0,0,0-3.04,3.041V43.707a3.044,3.044,0,0,0,3.04,3.041h27.292a3.044,3.044,0,0,0,3.041-3.041V34.616A.687.687,0,0,0,105.928,33.929Z" transform="translate(-73.242 0)" fill="#1d1d1d"/>
      <path id="Path_380" data-name="Path 380" d="M208.118,0H188.977a.687.687,0,1,0,0,1.374h19.141a1.669,1.669,0,0,1,1.667,1.667V31.319a.687.687,0,1,0,1.374,0V3.041A3.044,3.044,0,0,0,208.118,0Z" transform="translate(-177.786)" fill="#1d1d1d"/>
      <path id="Path_381" data-name="Path 381" d="M140.646,77.71V43.983a1.146,1.146,0,0,0-1.145-1.145h-23.48a1.146,1.146,0,0,0-1.145,1.145V77.71a1.146,1.146,0,0,0,1.145,1.145H139.5A1.146,1.146,0,0,0,140.646,77.71Zm-1.374-.229H116.25V44.212h23.022Z" transform="translate(-111.075 -38.927)" fill="#1d1d1d"/>
      <circle id="Ellipse_365" data-name="Ellipse 365" cx="1.357" cy="1.357" r="1.357" transform="translate(15.33 41.339)" fill="#1d1d1d"/>
      <path id="Path_382" data-name="Path 382" d="M168.386,205.528h-2.648l-1.131-2.953a.687.687,0,0,0-1.283,0l-1.554,4.056-2.4-6.277a.687.687,0,0,0-1.283,0l-3.243,8.467-1.091-2.849a.687.687,0,0,0-.641-.441H150.17a.687.687,0,0,0,0,1.374h2.465l1.564,4.082a.687.687,0,0,0,1.283,0l3.243-8.467,2.4,6.277a.687.687,0,0,0,1.283,0l1.554-4.056.659,1.719a.687.687,0,0,0,.641.441h3.12a.687.687,0,0,0,0-1.374Z" transform="translate(-142.522 -181.66)" fill="#1d1d1d"/>
      <path id="Path_383" data-name="Path 383" d="M149.9,101.68h17.5a.972.972,0,0,0,.971-.971v-1.82a.972.972,0,0,0-.971-.971h-3.547V94.4a.972.972,0,0,0-.971-.971h-3.95a.972.972,0,0,0-.971.971v1.263h-3.154a.971.971,0,0,0-.96-.833H149.9a.972.972,0,0,0-.971.971v4.906A.972.972,0,0,0,149.9,101.68ZM167,99.292v1.014h-3.143V99.292Zm-7.661-4.486h3.143v5.5h-3.143v-5.5Zm-1.374,5.5h-3.143V97.039h3.143Zm-7.661-4.1h3.143v4.1H150.3Z" transform="translate(-142.017 -84.901)" fill="#1d1d1d"/>
      <path id="Path_384" data-name="Path 384" d="M145.75,344.583a2.851,2.851,0,1,0-2.851-2.851A2.854,2.854,0,0,0,145.75,344.583Zm0-4.327a1.477,1.477,0,1,1-1.477,1.477A1.478,1.478,0,0,1,145.75,340.256Z" transform="translate(-136.539 -307.941)" fill="#1d1d1d"/>
      <path id="Path_385" data-name="Path 385" d="M255.256,338.882a2.851,2.851,0,1,0,2.851,2.851A2.854,2.854,0,0,0,255.256,338.882Zm0,4.327a1.477,1.477,0,1,1,1.477-1.477A1.478,1.478,0,0,1,255.256,343.209Z" transform="translate(-236.047 -307.941)" fill="#1d1d1d"/>
      <path id="Path_386" data-name="Path 386" d="M211.126,349.039h-1.46a.687.687,0,1,0,0,1.374h1.46a.687.687,0,1,0,0-1.374Z" transform="translate(-196.586 -317.171)" fill="#1d1d1d"/>
      <path id="Path_387" data-name="Path 387" d="M211.126,378.881h-1.46a.687.687,0,1,0,0,1.374h1.46a.687.687,0,1,0,0-1.374Z" transform="translate(-196.586 -344.288)" fill="#1d1d1d"/>
      <path id="Path_388" data-name="Path 388" d="M320.632,349.039h-1.46a.687.687,0,0,0,0,1.374h1.46a.687.687,0,1,0,0-1.374Z" transform="translate(-296.094 -317.171)" fill="#1d1d1d"/>
      <path id="Path_389" data-name="Path 389" d="M320.632,378.881h-1.46a.687.687,0,0,0,0,1.374h1.46a.687.687,0,1,0,0-1.374Z" transform="translate(-296.094 -344.288)" fill="#1d1d1d"/>
    </g>
  </g>
</svg>
