<svg xmlns="http://www.w3.org/2000/svg" xmlns:xlink="http://www.w3.org/1999/xlink" width="89" height="91" viewBox="0 0 89 91">
  <defs>
    <filter id="Rectangle_140" x="0" y="0" width="89" height="91" filterUnits="userSpaceOnUse">
      <feOffset dy="3" input="SourceAlpha"/>
      <feGaussianBlur stdDeviation="3" result="blur"/>
      <feFlood flood-opacity="0.071"/>
      <feComposite operator="in" in2="blur"/>
      <feComposite in="SourceGraphic"/>
    </filter>
  </defs>
  <g id="Group_124" data-name="Group 124" transform="translate(187 473)">
    <g transform="matrix(1, 0, 0, 1, -187, -473)" filter="url(#Rectangle_140)">
      <rect id="Rectangle_140-2" data-name="Rectangle 140" width="71" height="73" rx="20" transform="translate(9 6)" fill="#fff"/>
    </g>
    <path id="Icon_metro-profile" data-name="Icon metro-profile" d="M50.223,12.988H46.78V7.821l-7.108-.109.037,5.276H18.348l.146-5.276-6.961.109V13.1l-3.517-.109A3.519,3.519,0,0,0,4.5,16.505V41.126a3.519,3.519,0,0,0,3.517,3.517H50.223a3.519,3.519,0,0,0,3.517-3.517V16.505A3.519,3.519,0,0,0,50.223,12.988ZM41.43,9.471h3.517v7.034H41.43ZM18.568,21.45c2.124,0,3.848,2.263,3.848,5.056s-1.723,5.056-3.848,5.056S14.72,29.3,14.72,26.507s1.723-5.056,3.848-5.056ZM13.292,9.471h3.517v7.034H13.292ZM10.948,37.517s.417-3.345,1.365-3.976a13.488,13.488,0,0,1,3.676-1.052s1.769,1.891,2.522,1.891,2.52-1.891,2.52-1.891a13.446,13.446,0,0,1,3.677,1.052c1.113.742,1.391,3.976,1.391,3.976H10.948ZM46.706,35.85H30.878V34.091H46.706Zm0-3.517H30.878V30.574H46.706Zm0-3.517H30.878V27.057H46.706Zm0-3.517H30.878V23.54H46.706Z" transform="translate(-171.619 -456.678)" fill="#86c2ea"/>
  </g>
</svg>
