<svg xmlns="http://www.w3.org/2000/svg" xmlns:xlink="http://www.w3.org/1999/xlink" width="89" height="91" viewBox="0 0 89 91">
  <defs>
    <filter id="Rectangle_147" x="0" y="0" width="89" height="91" filterUnits="userSpaceOnUse">
      <feOffset dy="3" input="SourceAlpha"/>
      <feGaussianBlur stdDeviation="3" result="blur"/>
      <feFlood flood-opacity="0.071"/>
      <feComposite operator="in" in2="blur"/>
      <feComposite in="SourceGraphic"/>
    </filter>
  </defs>
  <g id="Group_125" data-name="Group 125" transform="translate(91 473)">
    <g transform="matrix(1, 0, 0, 1, -91, -473)" filter="url(#Rectangle_147)">
      <rect id="Rectangle_147-2" data-name="Rectangle 147" width="71" height="73" rx="20" transform="translate(9 6)" fill="#fff"/>
    </g>
    <g id="settings_1_" data-name="settings (1)" transform="translate(-69.721 -453.874)">
      <g id="Group_115" data-name="Group 115" transform="translate(37.51 37.591)">
        <g id="Group_114" data-name="Group 114">
          <path id="Path_390" data-name="Path 390" d="M414.915,411.718a2.417,2.417,0,1,0,2.417,2.417A2.42,2.42,0,0,0,414.915,411.718Zm0,3.4a.985.985,0,1,1,.985-.985A.986.986,0,0,1,414.915,415.12Z" transform="translate(-412.498 -411.718)" fill="gray"/>
        </g>
      </g>
      <g id="Group_117" data-name="Group 117" transform="translate(0 0)">
        <g id="Group_116" data-name="Group 116">
          <path id="Path_391" data-name="Path 391" d="M48.113,39.883A6.336,6.336,0,0,0,46,35.3L31.582,22.292,44.333,9.541a1.353,1.353,0,0,0,.247-.1l2.761-1.457a1.345,1.345,0,0,0,.323-2.14L44.555,2.737a1.345,1.345,0,0,0-2.14.323L40.958,5.821a1.359,1.359,0,0,0-.1.249l-6.019,6.019A.716.716,0,0,0,35.852,13.1l5.523-5.523,1.447,1.447L28.7,23.15,27.25,21.7l6.165-6.165A.716.716,0,1,0,32.4,14.525L27.929,19l-4.868-4.391A11,11,0,0,0,8.726.729.716.716,0,0,0,8.476,1.9L14.1,7.528a.881.881,0,0,1,0,1.246l-3.652,3.652a.881.881,0,0,1-1.246,0L3.578,6.8a.716.716,0,0,0-1.175.25A11,11,0,0,0,16.058,21.46l3.764,4.116a3.865,3.865,0,0,1-4.849,1.844.716.716,0,0,0-.766.161l-8.77,8.77a6.09,6.09,0,0,0,8.612,8.612l8.77-8.77a.716.716,0,0,0,.161-.766,3.874,3.874,0,0,1,5.014-5.014.716.716,0,0,0,.766-.161L30.415,28.6a2.638,2.638,0,0,0,0-3.73l-.7-.7.857-.857L45.044,36.364A4.961,4.961,0,1,1,38.06,43.4L27.3,31.626a.716.716,0,0,0-1.057.967L37,44.363a6.338,6.338,0,0,0,4.576,2.077l.148,0a6.394,6.394,0,0,0,6.387-6.558ZM42.255,6.432l1.371-2.6,2.94,2.94-2.6,1.371ZM16.8,20.145a.716.716,0,0,0-.779-.188A9.565,9.565,0,0,1,3.4,8.648l4.791,4.791a2.314,2.314,0,0,0,3.272,0l3.652-3.652a2.314,2.314,0,0,0,0-3.272L10.321,1.724A9.567,9.567,0,0,1,21.554,14.547a.716.716,0,0,0,.186.8l5.175,4.668-.678.678-.7-.7a2.638,2.638,0,0,0-3.73,0L20.149,21.64a.716.716,0,0,0-.161.766,3.869,3.869,0,0,1,.259,1.511Zm12.6,7.439-1.341,1.341a5.311,5.311,0,0,0-5.223,1.346h0a5.31,5.31,0,0,0-1.346,5.223l-8.457,8.457A4.657,4.657,0,1,1,6.45,37.365l8.457-8.457a5.306,5.306,0,0,0,6.569-6.569L22.816,21a1.206,1.206,0,0,1,1.7,0l1.211,1.211,2.46,2.46L29.4,25.881A1.206,1.206,0,0,1,29.4,27.585Z" transform="translate(-1.673 0)" fill="gray" stroke="gray" stroke-width="1"/>
        </g>
      </g>
      <g id="Group_119" data-name="Group 119" transform="translate(6.66 31.404)">
        <g id="Group_118" data-name="Group 118">
          <path id="Path_392" data-name="Path 392" d="M82.622,344.161a.717.717,0,0,0-1.013,0l-6.785,6.785a.716.716,0,0,0,1.013,1.013l6.785-6.785A.717.717,0,0,0,82.622,344.161Z" transform="translate(-74.614 -343.952)" fill="gray"/>
        </g>
      </g>
      <g id="Group_121" data-name="Group 121" transform="translate(9.167 33.911)">
        <g id="Group_120" data-name="Group 120">
          <path id="Path_393" data-name="Path 393" d="M110.081,371.621a.717.717,0,0,0-1.013,0l-6.785,6.785a.716.716,0,0,0,1.013,1.013l6.785-6.785A.716.716,0,0,0,110.081,371.621Z" transform="translate(-102.073 -371.411)" fill="gray"/>
        </g>
      </g>
    </g>
  </g>
</svg>
